<svg width="64" height="64" viewBox="0 0 64 64" fill="none" xmlns="http://www.w3.org/2000/svg">
<g id="Icon">
<g id="Bg">
<rect id="Rectangle" width="64" height="64" rx="32" fill="#5D5DFF"/>
</g>
<g id="Shapes">
<path id="Path" d="M38 24V22" stroke="#CBCCFF" stroke-width="2" stroke-linecap="square"/>
<path id="Path_2" d="M40.121 24.879L41.536 23.464" stroke="#CBCCFF" stroke-width="2" stroke-linecap="square"/>
<path id="Path_3" d="M41 27H43" stroke="#CBCCFF" stroke-width="2" stroke-linecap="square"/>
<path id="Path_4" d="M40.121 29.121L41.536 30.536" stroke="#CBCCFF" stroke-width="2" stroke-linecap="square"/>
<path id="Path_5" d="M38 30V32" stroke="#CBCCFF" stroke-width="2" stroke-linecap="square"/>
<path id="Path_6" d="M35.879 29.121L34.464 30.536" stroke="#CBCCFF" stroke-width="2" stroke-linecap="square"/>
<path id="Path_7" d="M35 27H33" stroke="#CBCCFF" stroke-width="2" stroke-linecap="square"/>
<path id="Path_8" d="M35.879 24.879L34.464 23.464" stroke="#CBCCFF" stroke-width="2" stroke-linecap="square"/>
<circle id="Oval" cx="38" cy="27" r="3" stroke="#CBCCFF" stroke-width="2" stroke-linecap="square"/>
<path id="Path_9" d="M29.86 23.1801C24.8 23.9881 21 27.6001 21 32.0001C21 37.0001 25.9 41.0001 32 41.0001C33.0475 41.0214 34.0923 40.8866 35.1 40.6001L41 43.0001L40.4 37.8001C41.2506 36.9575 41.9272 35.9558 42.391 34.8521" stroke="#F4F4FF" stroke-width="2" stroke-linecap="square"/>
</g>
</g>
</svg>
