<svg width="224" height="33" viewBox="0 0 224 33" fill="none" xmlns="http://www.w3.org/2000/svg">
<g id="Social Icons">
<g id="1">
<rect id="Rectangle" width="32" height="32" rx="16" fill="#25282C"/>
<path id="Path" d="M24 11.5C23.4 11.8 22.8 11.9 22.1 12C22.8 11.6 23.3 11 23.5 10.2C22.9 10.6 22.2 10.8 21.4 11C20.8 10.4 19.9 10 19 10C17.3 10 15.8 11.5 15.8 13.3C15.8 13.6 15.8 13.8 15.9 14C13.2 13.9 10.7 12.6 9.1 10.6C8.8 11.1 8.7 11.6 8.7 12.3C8.7 13.4 9.3 14.4 10.2 15C9.7 15 9.2 14.8 8.7 14.6C8.7 16.2 9.8 17.5 11.3 17.8C11 17.9 10.7 17.9 10.4 17.9C10.2 17.9 10 17.9 9.8 17.8C10.2 19.1 11.4 20.1 12.9 20.1C11.8 21 10.4 21.5 8.8 21.5C8.5 21.5 8.3 21.5 8 21.5C9.5 22.4 11.2 23 13 23C19 23 22.3 18 22.3 13.7C22.3 13.6 22.3 13.4 22.3 13.3C23 12.8 23.6 12.2 24 11.5Z" fill="#5D5DFF"/>
</g>
<g id="2">
<rect id="Rectangle_2" x="48" y="1" width="32" height="32" rx="16" fill="#25282C"/>
<path id="Path_2" fill-rule="evenodd" clip-rule="evenodd" d="M64 9.2002C59.6 9.2002 56 12.8002 56 17.2002C56 20.7002 58.3 23.7002 61.5 24.8002C61.9 24.9002 62 24.6002 62 24.4002C62 24.2002 62 23.7002 62 23.0002C59.8 23.5002 59.3 22.0002 59.3 22.0002C58.9 21.1002 58.4 20.8002 58.4 20.8002C57.7 20.3002 58.5 20.3002 58.5 20.3002C59.3 20.4002 59.7 21.1002 59.7 21.1002C60.4 22.4002 61.6 22.0002 62 21.8002C62.1 21.3002 62.3 20.9002 62.5 20.7002C60.7 20.5002 58.9 19.8002 58.9 16.7002C58.9 15.8002 59.2 15.1002 59.7 14.6002C59.6 14.4002 59.3 13.6002 59.8 12.5002C59.8 12.5002 60.5 12.3002 62 13.3002C62.6 13.1002 63.3 13.0002 64 13.0002C64.7 13.0002 65.4 13.1002 66 13.3002C67.5 12.3002 68.2 12.5002 68.2 12.5002C68.6 13.6002 68.4 14.4002 68.3 14.6002C68.8 15.2002 69.1 15.9002 69.1 16.7002C69.1 19.8002 67.2 20.4002 65.4 20.6002C65.7 21.0002 66 21.5002 66 22.2002C66 23.3002 66 24.1002 66 24.4002C66 24.6002 66.1 24.9002 66.6 24.8002C69.8 23.7002 72.1 20.7002 72.1 17.2002C72 12.8002 68.4 9.2002 64 9.2002Z" fill="#5D5DFF"/>
</g>
<g id="3">
<rect id="Rectangle_3" x="96" y="1" width="32" height="32" rx="16" fill="#25282C"/>
<path id="Path_3" d="M110.023 25L110 18H107V15H110V13C110 10.3008 111.672 9 114.079 9C115.233 9 116.224 9.08587 116.513 9.12425V11.9451L114.843 11.9458C113.533 11.9458 113.28 12.5681 113.28 13.4812V15H117L116 18H113.28V25H110.023Z" fill="#5D5DFF"/>
</g>
<g id="4">
<rect id="Rectangle_4" x="144" y="1" width="32" height="32" rx="16" fill="#25282C"/>
<g id="logo-instagram">
<circle id="Oval" cx="164.145" cy="12.8921" r="0.96" fill="#5D5DFF"/>
<path id="Shape" fill-rule="evenodd" clip-rule="evenodd" d="M156 17C156 19.206 157.794 21 160 21C162.206 21 164 19.206 164 17C164 14.794 162.206 13 160 13C157.794 13 156 14.794 156 17ZM158 17C158 15.897 158.897 15 160 15C161.103 15 162 15.897 162 17C162 18.103 161.103 19 160 19C158.897 19 158 18.103 158 17Z" fill="#5D5DFF"/>
<path id="Shape_2" fill-rule="evenodd" clip-rule="evenodd" d="M156 25H164C166.056 25 168 23.056 168 21V13C168 10.944 166.056 9 164 9H156C153.944 9 152 10.944 152 13V21C152 23.056 153.944 25 156 25ZM154 13C154 12.065 155.065 11 156 11H164C164.935 11 166 12.065 166 13V21C166 21.935 164.935 23 164 23H156C155.047 23 154 21.953 154 21V13Z" fill="#5D5DFF"/>
</g>
</g>
<g id="5">
<rect id="Rectangle_5" x="192" y="1" width="32" height="32" rx="16" fill="#25282C"/>
<path id="Shape_3" fill-rule="evenodd" clip-rule="evenodd" d="M200.7 9H215.3C215.7 9 216 9.3 216.1 9.7V24.3C216.1 24.7 215.8 25 215.4 25H200.7C200.3 25 200 24.7 200 24.4V9.7C200 9.3 200.3 9 200.7 9ZM202.4 22.6H204.7H204.8V15H202.4V22.6ZM203.6 14C202.8 14 202.2 13.3 202.2 12.6C202.2 11.8 202.8 11.2 203.6 11.2C204.4 11.2 205 11.8 205 12.6C204.9 13.3 204.3 14 203.6 14ZM211.2 22.6H213.5V18.4C213.5 16.4 213.1 14.8 210.7 14.8C209.6 14.8 208.8 15.4 208.5 16V15H206.2V22.7H208.6V18.9C208.6 17.9 208.8 16.9 210 16.9C211.2 16.9 211.2 18 211.2 18.9V22.6Z" fill="#5D5DFF"/>
</g>
</g>
</svg>
